<svg xmlns="http://www.w3.org/2000/svg" viewBox="0 0 100 100"><rect width="100" height="100" fill="#fbf4e8"/><path d="M50 63V84" stroke="#1f3f9e" stroke-width="4.6" stroke-linecap="round"/><path d="M50 81.5C50.5 73 57.5 67.5 69.5 66C68 75.5 60.5 81.5 50 81.5Z" fill="#1f3f9e"/><path d="M50 84C49.6 77.5 44 73 34.5 72C36 79.5 42 84 50 84Z" fill="#1f3f9e"/><rect x="26.4" y="29" width="5.2" height="26" rx="2.6" fill="#ff6b1a"/><rect x="33.4" y="34.5" width="5.2" height="26" rx="2.6" fill="#ff6b1a"/><rect x="40.4" y="38.5" width="5.2" height="25" rx="2.6" fill="#ff6b1a"/><rect x="47.4" y="22" width="5.2" height="42.5" rx="2.6" fill="#ff6b1a"/><rect x="54.4" y="38.5" width="5.2" height="25" rx="2.6" fill="#ff6b1a"/><rect x="61.4" y="34.5" width="5.2" height="26" rx="2.6" fill="#ff6b1a"/><rect x="68.4" y="29" width="5.2" height="26" rx="2.6" fill="#ff6b1a"/></svg>
